<svg id="Layer_13" xmlns="http://www.w3.org/2000/svg" viewBox="0 0 23.7 21.3"><style>.st0{fill:#D26F9E;} .st1{fill:#F6E2EC;}</style><path class="st0" d="M21.2 0H2.5C1.1 0 0 1.1 0 2.5v16c0 .3.2.5.5.5s.5-.2.5-.5v-16C1 1.7 1.7 1 2.5 1h18.7c.8 0 1.5.7 1.5 1.5v16c0 .3.2.5.5.5s.5-.2.5-.5v-16c0-1.4-1.1-2.5-2.5-2.5z"/><path class="st0" d="M21 4.1h-5.9c-.3 0-.5.2-.5.5s.2.5.5.5H21c.3 0 .5-.2.5-.5s-.2-.5-.5-.5zM15.1 7.1h4.4c.3 0 .5-.2.5-.5s-.2-.5-.5-.5h-4.4c-.3 0-.5.2-.5.5s.2.5.5.5zM21 8.1h-5.9c-.3 0-.5.2-.5.5s.2.5.5.5H21c.3 0 .5-.2.5-.5s-.2-.5-.5-.5zM20.2 11.1c.3 0 .5-.2.5-.5s-.2-.5-.5-.5h-5.1c-.3 0-.5.2-.5.5s.2.5.5.5h5.1zM21 12.1H2.6c-.3 0-.5.2-.5.5s.2.5.5.5H21c.3 0 .5-.2.5-.5s-.2-.5-.5-.5zM21 14.1H2.6c-.3 0-.5.2-.5.5s.2.5.5.5H21c.3 0 .5-.2.5-.5s-.2-.5-.5-.5zM2.6 17.1h16.1c.3 0 .5-.2.5-.5s-.2-.5-.5-.5H2.6c-.3 0-.5.2-.5.5s.2.5.5.5zM19.6 18.1h-17c-.3 0-.5.2-.5.5s.2.5.5.5h17.1c.3 0 .5-.2.5-.5s-.3-.5-.6-.5zM15.9 20.3H2.6c-.3 0-.5.2-.5.5s.2.5.5.5h13.3c.3 0 .5-.2.5-.5s-.3-.5-.5-.5z"/><path class="st1" d="M7.2 9.7c2-1.1 2.5-2 3.3-2 .5 0 1.5.4 2.2.9V5.1H3.1v4.8c1-.4 1.7-1.4 2.3-1.3.8 0 1.2.8 1.8 1.1zm3.1-4.3c.4-.2.8 0 1 .4s0 .8-.4 1c-.4.2-.8 0-1-.4-.1-.4 0-.8.4-1z"/><path class="st0" d="M2.6 11.1h10.6c.3 0 .5-.2.5-.5v-6c0-.3-.2-.5-.5-.5H2.6c-.3 0-.5.2-.5.5v6c0 .3.2.5.5.5zm.5-6h9.6v3.5c-.7-.5-1.7-.9-2.2-.9-.8 0-1.4.9-3.3 2-.6-.3-1-1.1-1.8-1.1-.6 0-1.3 1-2.3 1.3V5.1z"/><circle class="st0" cx="10.6" cy="6.1" r=".7"/></svg>