<svg id="Layer_13" xmlns="http://www.w3.org/2000/svg" viewBox="0 0 22.1 16.9"><style>.st0{fill:#5BCADE;} .st1{fill:#FAE7E1;stroke:#E8876A;stroke-linecap:round;stroke-linejoin:round;stroke-miterlimit:10;} .st2{fill:#DDF5F0;stroke:#E8876A;stroke-linecap:round;stroke-linejoin:round;stroke-miterlimit:10;} .st3{fill:#E8876A;stroke:#E8876A;stroke-miterlimit:10;}</style><circle class="st0" cx="2.4" cy="2.9" r=".6"/><circle class="st0" cx="4.4" cy="2.9" r=".6"/><circle class="st0" cx="6.4" cy="2.9" r=".6"/><path class="st1" d="M19.6.5H2.5c-1.1 0-2 .9-2 2v13.3c0 .3.3.6.6.6H2c.3 0 .6-.3.6-.6v-4.7h1.5v4.7c0 .3.3.6.6.6h1.1c.3 0 .6-.3.6-.6v-4.7H8v4.7c0 .3.3.6.6.6h1c.3 0 .6-.3.6-.6v-4.7h1.5v.7H14v-.7h1.5v1.7h2.2v-1.7h1.6v4.7c0 .3.3.6.6.6h1c.3 0 .6-.3.6-.6V2.5c.1-1.1-.8-2-1.9-2z"/><path class="st2" d="M12.3 2.9h5.1M12.3 4.9h4.1M12.3 6.9h4.1M12.3 8.9H17"/><path class="st3" d="M6.7 8.5v1h-.6v-1c-.6 0-1.1-.3-1.6-.8l.4-.5c.5.5 1.1.7 1.6.7.6 0 1.1-.3 1.1-.8 0-.6-.5-.8-1.2-1-1-.4-1.8-.6-1.8-1.6 0-.8.6-1.4 1.6-1.5V2h.6v1.1c.5.1 1 .3 1.4.6l-.5.5c-.4-.3-1-.5-1.4-.5-.6 0-1 .3-1 .7 0 .5.5.7 1.2.9 1 .4 1.8.7 1.8 1.7 0 .9-.6 1.5-1.6 1.5z"/></svg>