<svg id="Layer_13" xmlns="http://www.w3.org/2000/svg" viewBox="0 0 20.8 22.3"><style>.st0{fill:#FFFFFF;stroke:#E8C36A;stroke-linecap:round;stroke-linejoin:round;stroke-miterlimit:10;} .st1{fill:#FAF3E1;stroke:#E8C36A;stroke-linecap:round;stroke-linejoin:round;stroke-miterlimit:10;} .st2{fill:#FFFFFF;} .st3{fill:none;stroke:#E8C36A;stroke-linecap:round;stroke-linejoin:round;stroke-miterlimit:10;}</style><path class="st0" d="M18.3 21.8H2.5c-1.1 0-2-.9-2-2v-10c0-1.1.9-2 2-2h15.8c1.1 0 2 .9 2 2v10.1c0 1-.9 1.9-2 1.9z"/><path class="st1" d="M1 8.7l9.4 8 9.4-8v-.2c-.3-.3-.8-.5-1.2-.5H2.2c-.5 0-1 .2-1.3.6l.1.1z"/><path class="st2" d="M3.8 17.3V4.9c0-.6.5-1.2 1.2-1.2h10.9c.6 0 1.2.5 1.2 1.2v12.3"/><path class="st0" d="M19.8 8.5v.2l-9.4 8-9.4-8v-.2c-.3.4-.5.8-.5 1.3v10.1c0 1.1.9 2 2 2h15.8c1.1 0 2-.9 2-2V9.8c0-.5-.2-1-.5-1.3z"/><path class="st1" d="M1 8.5l9.4-8 9.4 8"/><path class="st0" d="M3.8 10.7V4.9c0-.6.5-1.2 1.2-1.2h10.9c.6 0 1.2.5 1.2 1.2v5.7"/><path class="st3" d="M7.2 6.8h6.4M7.2 9H12M7.2 11.2h6.4M7.2 13.4h5.5"/><path class="st0" d="M18.6 21.8l-8.2-7-8.3 7z"/></svg>