<svg xmlns="http://www.w3.org/2000/svg" width="186" height="18" viewBox="0 0 186 18"><path fill="#595859" d="M87.4.5"></path><path fill="#595859" d="M125 0h2v17h-2zM147.6.4l2.8 1.3-2.5 4.6 5.2-.7.2 3-5.2.5 3.2 4.3-2.6 1.7-2.7-4.3-2.1 4.7-2.8-1.6 2.2-4.5-5 .8-.4-3.1 5.3-.5-3.1-4 2.5-1.9 2.8 4.4zM186 16v-6h-23v6zM163 0h23v4h-23zM0 0h4.2v7H12V0h4.1v17H12v-6.7H4.2V17H0zM27.8 10H34V7h-6.2V3.2h6.6V0H23.8v17h10.6v-2.7h-6.6zM45.7 13.9V0h-4.2v17h9.9v-3.1zM88.4 17H93L86.5 0h-5l-6.2 17h4.3l.9-2.7h7l.9 2.7zm-7-5.4l2.5-7.3 2.6 7.3h-5.1zM98.6 0v17h4.2V9.3l5.8 7.7h5.4l-6.8-8.8 6.7-8.2h-5.1l-6 7.4V0zM68 8.2s2.7-.9 2.7-4S68.1 0 63.8 0h-6.5v17h9.6s4-.4 4.2-4.4c.1-4-3.1-4.4-3.1-4.4zm-6.7-5.3h2.4c1.4 0 2.7.8 2.7 2.2s-.9 2.1-2.8 2.2h-2.3V2.9zm2.3 11.8h-2.3V9.9h2.3c1.4 0 2.9.2 2.9 2.2s-1.6 2.6-2.9 2.6z"></path></svg>